<svg width="136" height="40" viewBox="0 0 136 40" fill="none" xmlns="http://www.w3.org/2000/svg">
<path fill-rule="evenodd" clip-rule="evenodd" d="M16 2.3094C18.4752 0.880339 21.5248 0.880339 24 2.3094L33.3205 7.6906C35.7957 9.11966 37.3205 11.7607 37.3205 14.6188V25.3812C37.3205 28.2393 35.7957 30.8803 33.3205 32.3094L24 37.6906C21.5248 39.1197 18.4752 39.1197 16 37.6906L6.67949 32.3094C4.20428 30.8803 2.67949 28.2393 2.67949 25.3812V14.6188C2.67949 11.7607 4.20428 9.11966 6.67949 7.6906L16 2.3094Z" fill="url(#paint0_linear_179:44215)"/>
<path fill-rule="evenodd" clip-rule="evenodd" d="M18.2654 18.5124C19.2965 17.9124 20.568 17.9026 21.6083 18.4866L28.6215 22.4239C29.1947 22.7456 29.1947 23.5707 28.6215 23.8925L21.6083 27.8297C20.568 28.4137 19.2965 28.4039 18.2654 27.804L11.5314 23.8861C10.9732 23.5613 10.9732 22.7551 11.5314 22.4303L18.2654 18.5124Z" fill="white"/>
<g opacity="0.900359" filter="url(#filter0_b_179:44215)">
<path fill-rule="evenodd" clip-rule="evenodd" d="M18.2654 18.4167C19.2965 17.8168 20.568 17.807 21.6083 18.391L28.6215 22.3282C29.1947 22.65 29.1947 23.4751 28.6215 23.7968L21.6083 27.7341C20.568 28.3181 19.2965 28.3083 18.2654 27.7084L11.5314 23.7904C10.9732 23.4657 10.9732 22.6594 11.5314 22.3347L18.2654 18.4167Z" fill="url(#paint1_linear_179:44215)"/>
</g>
<path fill-rule="evenodd" clip-rule="evenodd" d="M18.2654 15.023C19.2965 14.4231 20.568 14.4133 21.6083 14.9973L28.6215 18.9346C29.1947 19.2563 29.1947 20.0814 28.6215 20.4032L21.6083 24.3404C20.568 24.9244 19.2965 24.9146 18.2654 24.3147L11.5314 20.3967C10.9732 20.072 10.9732 19.2657 11.5314 18.941L18.2654 15.023Z" fill="white"/>
<g filter="url(#filter1_b_179:44215)">
<path fill-rule="evenodd" clip-rule="evenodd" d="M18.2654 14.908C19.2965 14.3081 20.568 14.2983 21.6083 14.8823L28.6215 18.8196C29.1947 19.1413 29.1947 19.9664 28.6215 20.2882L21.6083 24.2254C20.568 24.8094 19.2965 24.7996 18.2654 24.1997L11.5314 20.2817C10.9732 19.957 10.9732 19.1507 11.5314 18.826L18.2654 14.908Z" fill="url(#paint2_linear_179:44215)"/>
</g>
<path fill-rule="evenodd" clip-rule="evenodd" d="M18.2654 11.3993C19.2965 10.7994 20.568 10.7896 21.6083 11.3736L28.6215 15.3108C29.1947 15.6326 29.1947 16.4577 28.6215 16.7794L21.6083 20.7167C20.568 21.3007 19.2965 21.2909 18.2654 20.691L11.5314 16.773C10.9732 16.4483 10.9732 15.642 11.5314 15.3173L18.2654 11.3993Z" fill="white"/>
<path d="M57.456 28.836C60.528 28.836 63.216 27.324 64.656 24.948L61.344 23.028C60.624 24.324 59.16 25.092 57.456 25.092C54.48 25.092 52.56 23.1 52.56 20.1C52.56 17.1 54.48 15.108 57.456 15.108C59.16 15.108 60.6 15.876 61.344 17.172L64.656 15.252C63.192 12.876 60.504 11.364 57.456 11.364C52.392 11.364 48.72 15.156 48.72 20.1C48.72 25.044 52.392 28.836 57.456 28.836ZM74.322 16.5V23.052C74.322 24.756 73.41 25.524 72.09 25.524C70.938 25.524 70.002 24.828 70.002 23.34V16.5H66.402V23.868C66.402 27.108 68.466 28.836 70.89 28.836C72.474 28.836 73.674 28.26 74.322 27.372V28.5H77.922V16.5H74.322ZM89.2742 16.5V17.628C88.4822 16.716 87.3062 16.164 85.6982 16.164C82.5542 16.164 79.9622 18.924 79.9622 22.5C79.9622 26.076 82.5542 28.836 85.6982 28.836C87.3062 28.836 88.4822 28.284 89.2742 27.372V28.5H92.8742V16.5H89.2742ZM86.4182 25.428C84.7622 25.428 83.5622 24.3 83.5622 22.5C83.5622 20.7 84.7622 19.572 86.4182 19.572C88.0742 19.572 89.2742 20.7 89.2742 22.5C89.2742 24.3 88.0742 25.428 86.4182 25.428ZM102.547 16.164C100.963 16.164 99.7633 16.74 99.1153 17.628V16.5H95.5153V28.5H99.1153V21.948C99.1153 20.244 100.027 19.476 101.347 19.476C102.499 19.476 103.435 20.172 103.435 21.66V28.5H107.035V21.132C107.035 17.892 104.971 16.164 102.547 16.164ZM111.308 15.444C112.484 15.444 113.468 14.46 113.468 13.284C113.468 12.108 112.484 11.124 111.308 11.124C110.132 11.124 109.148 12.108 109.148 13.284C109.148 14.46 110.132 15.444 111.308 15.444ZM109.508 28.5H113.108V16.5H109.508V28.5ZM122.774 16.164C121.19 16.164 119.99 16.74 119.342 17.628V16.5H115.742V28.5H119.342V21.948C119.342 20.244 120.254 19.476 121.574 19.476C122.726 19.476 123.662 20.172 123.662 21.66V28.5H127.262V21.132C127.262 17.892 125.198 16.164 122.774 16.164Z" fill="white"/>
<path d="M131.774 28.836C133.022 28.836 134.054 27.804 134.054 26.556C134.054 25.308 133.022 24.276 131.774 24.276C130.526 24.276 129.494 25.308 129.494 26.556C129.494 27.804 130.526 28.836 131.774 28.836Z" fill="#6C5DD3"/>
<defs>
<filter id="filter0_b_179:44215" x="-16.07" y="-9.22304" width="72.3042" height="64.5711" filterUnits="userSpaceOnUse" color-interpolation-filters="sRGB">
<feFlood flood-opacity="0" result="BackgroundImageFix"/>
<feGaussianBlur in="BackgroundImage" stdDeviation="13.5914"/>
<feComposite in2="SourceAlpha" operator="in" result="effect1_backgroundBlur_179:44215"/>
<feBlend mode="normal" in="SourceGraphic" in2="effect1_backgroundBlur_179:44215" result="shape"/>
</filter>
<filter id="filter1_b_179:44215" x="-16.07" y="-12.7317" width="72.3042" height="64.5711" filterUnits="userSpaceOnUse" color-interpolation-filters="sRGB">
<feFlood flood-opacity="0" result="BackgroundImageFix"/>
<feGaussianBlur in="BackgroundImage" stdDeviation="13.5914"/>
<feComposite in2="SourceAlpha" operator="in" result="effect1_backgroundBlur_179:44215"/>
<feBlend mode="normal" in="SourceGraphic" in2="effect1_backgroundBlur_179:44215" result="shape"/>
</filter>
<linearGradient id="paint0_linear_179:44215" x1="22.2029" y1="-16.5631" x2="-10.9232" y2="19.0311" gradientUnits="userSpaceOnUse">
<stop stop-color="#32C5FF"/>
<stop offset="0.533966" stop-color="#B620E0"/>
<stop offset="1" stop-color="#FFAA12"/>
</linearGradient>
<linearGradient id="paint1_linear_179:44215" x1="21.8114" y1="12.1722" x2="9.85519" y2="18.5838" gradientUnits="userSpaceOnUse">
<stop stop-color="white" stop-opacity="0.475466"/>
<stop offset="1" stop-color="white" stop-opacity="0.272734"/>
</linearGradient>
<linearGradient id="paint2_linear_179:44215" x1="23.8299" y1="12.9328" x2="14.1322" y2="18.6039" gradientUnits="userSpaceOnUse">
<stop stop-color="white" stop-opacity="0.200771"/>
<stop offset="1" stop-color="white" stop-opacity="0.697855"/>
</linearGradient>
</defs>
</svg>
